  0
SECTION
  2
HEADER
  9
$ACADVER
  1
AC1009
  9
$INSBASE
 10
0.0
 20
0.0
 30
0.0
  9
$EXTMIN
 10
502735.75104121061
 20
4625023.2562097684
 30
0.0
  9
$EXTMAX
 10
502837.848
 20
4625071.3094955673
 30
0.0
  9
$LIMMIN
 10
0.0
 20
0.0
  9
$LIMMAX
 10
420.0
 20
297.0
  9
$ORTHOMODE
 70
     0
  9
$REGENMODE
 70
     1
  9
$FILLMODE
 70
     1
  9
$QTEXTMODE
 70
     0
  9
$MIRRTEXT
 70
     0
  9
$DRAGMODE
 70
     2
  9
$LTSCALE
 40
1.0
  9
$OSMODE
 70
   295
  9
$ATTMODE
 70
     1
  9
$TEXTSIZE
 40
2.5
  9
$TRACEWID
 40
1.0
  9
$TEXTSTYLE
  7
STANDARD
  9
$CLAYER
  8
0
  9
$CELTYPE
  6
BYLAYER
  9
$CECOLOR
 62
   256
  9
$DIMSCALE
 40
1.0
  9
$DIMASZ
 40
2.5
  9
$DIMEXO
 40
0.625
  9
$DIMDLI
 40
3.75
  9
$DIMRND
 40
0.0
  9
$DIMDLE
 40
0.0
  9
$DIMEXE
 40
1.25
  9
$DIMTP
 40
0.0
  9
$DIMTM
 40
0.0
  9
$DIMTXT
 40
2.5
  9
$DIMCEN
 40
2.5
  9
$DIMTSZ
 40
0.0
  9
$DIMTOL
 70
     0
  9
$DIMLIM
 70
     0
  9
$DIMTIH
 70
     0
  9
$DIMTOH
 70
     0
  9
$DIMSE1
 70
     0
  9
$DIMSE2
 70
     0
  9
$DIMTAD
 70
     1
  9
$DIMZIN
 70
     8
  9
$DIMBLK
  1

  9
$DIMASO
 70
     1
  9
$DIMSHO
 70
     1
  9
$DIMPOST
  1

  9
$DIMAPOST
  1

  9
$DIMALT
 70
     0
  9
$DIMALTD
 70
     3
  9
$DIMALTF
 40
0.03937007874016
  9
$DIMLFAC
 40
1.0
  9
$DIMTOFL
 70
     1
  9
$DIMTVP
 40
0.0
  9
$DIMTIX
 70
     0
  9
$DIMSOXD
 70
     0
  9
$DIMSAH
 70
     0
  9
$DIMBLK1
  1

  9
$DIMBLK2
  1

  9
$DIMSTYLE
  2
ISO-25
  9
$DIMCLRD
 70
     0
  9
$DIMCLRE
 70
     0
  9
$DIMCLRT
 70
     0
  9
$DIMTFAC
 40
1.0
  9
$DIMGAP
 40
0.625
  9
$LUNITS
 70
     2
  9
$LUPREC
 70
     4
  9
$SKETCHINC
 40
1.0
  9
$FILLETRAD
 40
10.0
  9
$AUNITS
 70
     0
  9
$AUPREC
 70
     0
  9
$MENU
  1
.
  9
$ELEVATION
 40
0.0
  9
$PELEVATION
 40
0.0
  9
$THICKNESS
 40
0.0
  9
$LIMCHECK
 70
     0
  9
$BLIPMODE
 70
     0
  9
$CHAMFERA
 40
0.0
  9
$CHAMFERB
 40
0.0
  9
$SKPOLY
 70
     0
  9
$TDCREATE
 40
2457206.704971516
  9
$TDUPDATE
 40
2457207.4541321881
  9
$TDINDWG
 40
0.3585697801
  9
$TDUSRTIMER
 40
0.3585690856
  9
$USRTIMER
 70
     1
  9
$ANGBASE
 50
0.0
  9
$ANGDIR
 70
     0
  9
$PDMODE
 70
     0
  9
$PDSIZE
 40
0.0
  9
$PLINEWID
 40
0.0
  9
$COORDS
 70
     1
  9
$SPLFRAME
 70
     0
  9
$SPLINETYPE
 70
     6
  9
$SPLINESEGS
 70
     8
  9
$ATTDIA
 70
     0
  9
$ATTREQ
 70
     1
  9
$HANDLING
 70
     1
  9
$HANDSEED
  5
55F
  9
$SURFTAB1
 70
     6
  9
$SURFTAB2
 70
     6
  9
$SURFTYPE
 70
     6
  9
$SURFU
 70
     6
  9
$SURFV
 70
     6
  9
$UCSNAME
  2

  9
$UCSORG
 10
0.0
 20
0.0
 30
0.0
  9
$UCSXDIR
 10
1.0
 20
0.0
 30
0.0
  9
$UCSYDIR
 10
0.0
 20
1.0
 30
0.0
  9
$PUCSNAME
  2

  9
$PUCSORG
 10
0.0
 20
0.0
 30
0.0
  9
$PUCSXDIR
 10
1.0
 20
0.0
 30
0.0
  9
$PUCSYDIR
 10
0.0
 20
1.0
 30
0.0
  9
$USERI1
 70
     0
  9
$USERI2
 70
     0
  9
$USERI3
 70
     0
  9
$USERI4
 70
     0
  9
$USERI5
 70
     0
  9
$USERR1
 40
0.0
  9
$USERR2
 40
0.0
  9
$USERR3
 40
0.0
  9
$USERR4
 40
0.0
  9
$USERR5
 40
0.0
  9
$WORLDVIEW
 70
     1
  9
$SHADEDGE
 70
     3
  9
$SHADEDIF
 70
    70
  9
$TILEMODE
 70
     1
  9
$MAXACTVP
 70
    64
  9
$PLIMCHECK
 70
     0
  9
$PEXTMIN
 10
0.0
 20
0.0
 30
0.0
  9
$PEXTMAX
 10
0.0
 20
0.0
 30
0.0
  9
$PLIMMIN
 10
0.0
 20
0.0
  9
$PLIMMAX
 10
12.0
 20
9.0
  9
$UNITMODE
 70
     0
  9
$VISRETAIN
 70
     1
  9
$PLINEGEN
 70
     0
  9
$PSLTSCALE
 70
     1
  0
ENDSEC
  0
SECTION
  2
TABLES
  0
TABLE
  2
VPORT
 70
     1
  0
VPORT
  2
*ACTIVE
 70
     0
 10
0.0
 20
0.0
 11
1.0
 21
1.0
 12
502763.79583752889
 22
4625053.5129447486
 13
0.0
 23
0.0
 14
10.0
 24
10.0
 15
10.0
 25
10.0
 16
0.0
 26
0.0
 36
1.0
 17
0.0
 27
0.0
 37
0.0
 40
71.121843862347305
 41
1.797979797979798
 42
50.0
 43
0.0
 44
0.0
 50
0.0
 51
0.0
 71
     0
 72
  1000
 73
     1
 74
     3
 75
     0
 76
     1
 77
     0
 78
     0
  0
ENDTAB
  0
TABLE
  2
LTYPE
 70
     1
  0
LTYPE
  2
CONTINUOUS
 70
     0
  3
Solid line
 72
    65
 73
     0
 40
0.0
  0
ENDTAB
  0
TABLE
  2
LAYER
 70
     2
  0
LAYER
  2
0
 70
     0
 62
     7
  6
CONTINUOUS
  0
LAYER
  2
DEFPOINTS
 70
     0
 62
     7
  6
CONTINUOUS
  0
ENDTAB
  0
TABLE
  2
STYLE
 70
     2
  0
STYLE
  2
STANDARD
 70
     0
 40
0.0
 41
1.0
 50
0.0
 71
     0
 42
2.5
  3
txt
  4

  0
STYLE
  2
ANNOTATIVE
 70
     0
 40
0.0
 41
1.0
 50
0.0
 71
     0
 42
2.5
  3
txt
  4

  0
ENDTAB
  0
TABLE
  2
VIEW
 70
     0
  0
ENDTAB
  0
TABLE
  2
UCS
 70
     0
  0
ENDTAB
  0
TABLE
  2
APPID
 70
    10
  0
APPID
  2
ACAD
 70
     0
  0
APPID
  2
ACADANNOTATIVE
 70
     0
  0
APPID
  2
ACAD_PSEXT
 70
     0
  0
APPID
  2
ACADANNOPO
 70
     0
  0
APPID
  2
ACAD_DSTYLE_DIMJAG
 70
     0
  0
APPID
  2
ACAD_DSTYLE_DIMTALN
 70
     0
  0
APPID
  2
ACAD_MLEADERVER
 70
     0
  0
APPID
  2
ACAD_NAV_VCDISPLAY
 70
     0
  0
APPID
  2
ACAD_EXEMPT_FROM_CAD_STANDARDS
 70
     0
  0
APPID
  2
ACAD_DSTYLE_DIMRADIAL_EXTENSION
 70
     0
  0
ENDTAB
  0
TABLE
  2
DIMSTYLE
 70
     3
  0
DIMSTYLE
  2
STANDARD
 70
     0
  3

  4

  5

  6

  7

 40
1.0
 41
0.18
 42
0.0625
 43
0.38
 44
0.18
 45
0.0
 46
0.0
 47
0.0
 48
0.0
140
0.18
141
0.09
142
0.0
143
25.399999999999999
144
1.0
145
0.0
146
1.0
147
0.09
 71
     0
 72
     0
 73
     1
 74
     1
 75
     0
 76
     0
 77
     0
 78
     0
170
     0
171
     2
172
     0
173
     0
174
     0
175
     0
176
     0
177
     0
178
     0
  0
DIMSTYLE
  2
ANNOTATIVE
 70
     0
  3

  4

  5

  6

  7

 40
0.0
 41
2.5
 42
0.625
 43
3.75
 44
1.25
 45
0.0
 46
0.0
 47
0.0
 48
0.0
140
2.5
141
2.5
142
0.0
143
0.03937007874016
144
1.0
145
0.0
146
1.0
147
0.625
 71
     0
 72
     0
 73
     0
 74
     0
 75
     0
 76
     0
 77
     1
 78
     8
170
     0
171
     3
172
     1
173
     0
174
     0
175
     0
176
     0
177
     0
178
     0
  0
DIMSTYLE
  2
ISO-25
 70
     0
  3

  4

  5

  6

  7

 40
1.0
 41
2.5
 42
0.625
 43
3.75
 44
1.25
 45
0.0
 46
0.0
 47
0.0
 48
0.0
140
2.5
141
2.5
142
0.0
143
0.03937007874016
144
1.0
145
0.0
146
1.0
147
0.625
 71
     0
 72
     0
 73
     0
 74
     0
 75
     0
 76
     0
 77
     1
 78
     8
170
     0
171
     3
172
     1
173
     0
174
     0
175
     0
176
     0
177
     0
178
     0
  0
ENDTAB
  0
ENDSEC
  0
SECTION
  2
BLOCKS
  0
BLOCK
  8
0
  2
$MODEL_SPACE
 70
     0
 10
0.0
 20
0.0
 30
0.0
  3
$MODEL_SPACE
  1

  0
ENDBLK
  5
4E7
  8
0
  0
BLOCK
 67
     1
  8
0
  2
$PAPER_SPACE
 70
     0
 10
0.0
 20
0.0
 30
0.0
  3
$PAPER_SPACE
  1

  0
ENDBLK
  5
4E3
 67
     1
  8
0
  0
BLOCK
  8
0
  2
*D2
 70
     1
 10
0.0
 20
0.0
 30
0.0
  3
*D2
  1

  0
LINE
  5
2D3
  8
0
 62
     0
 10
502775.55075846182
 20
4625173.0370634142
 30
0.0
 11
502766.192718559
 21
4625161.8714979766
 31
0.0
  0
INSERT
  5
2D4
  8
0
  2
*U3
 10
0.0
 20
0.0
 30
0.0
  0
LINE
  5
2D5
  8
0
 62
     0
 10
502755.63569985062
 20
4625149.2753683953
 30
0.0
 11
502764.58685568947
 21
4625159.9554592371
 31
0.0
  0
SOLID
  5
2D6
  8
0
 62
     0
 10
502765.87337876961
 20
4625162.139141785
 30
0.0
 11
502766.51205834851
 21
4625161.6038541626
 31
0.0
 12
502764.58685568947
 22
4625159.9554592371
 32
0.0
 13
502764.58685568947
 23
4625159.9554592371
 33
0.0
  0
POINT
  5
2D7
  8
DEFPOINTS
 62
     0
 10
502764.58685568947
 20
4625159.9554592371
 30
0.0
  0
POINT
  5
2D8
  8
DEFPOINTS
 62
     0
 10
502755.63569985062
 20
4625149.2753683953
 30
0.0
  0
ENDBLK
  5
26C
  8
0
  0
BLOCK
  8
0
  2
*U3
 70
     1
 10
0.0
 20
0.0
 30
0.0
  3
*U3
  1

  0
TEXT
  5
460
  8
0
 62
     0
 10
502767.16565195372
 20
4625164.7752549481
 30
0.0
 40
2.5
  1
R13,94
 50
50.033085615133778
  0
ENDBLK
  5
462
  8
0
  0
BLOCK
  8
0
  2
*D4
 70
     1
 10
0.0
 20
0.0
 30
0.0
  3
*D4
  1

  0
LINE
  5
2D9
  8
0
 62
     0
 10
502752.36987198849
 20
4625118.9208158059
 30
0.0
 11
502756.51165378513
 21
4625132.3947883621
 31
0.0
  0
INSERT
  5
2DA
  8
0
  2
*U5
 10
0.0
 20
0.0
 30
0.0
  0
SOLID
  5
2DB
  8
0
 62
     0
 10
502756.1133788483
 20
4625132.5172146084
 30
0.0
 11
502756.9099287219
 21
4625132.2723621139
 31
0.0
 12
502757.24621126312
 22
4625134.7844379833
 32
0.0
 13
502757.24621126312
 23
4625134.7844379833
 33
0.0
  0
POINT
  5
2DC
  8
DEFPOINTS
 62
     0
 10
502757.24621126312
 20
4625134.7844379833
 30
0.0
  0
POINT
  5
2DD
  8
DEFPOINTS
 62
     0
 10
502752.39511400933
 20
4625119.0029327078
 30
0.0
  0
ENDBLK
  5
27E
  8
0
  0
BLOCK
  8
0
  2
*U5
 70
     1
 10
0.0
 20
0.0
 30
0.0
  3
*U5
  1

  0
TEXT
  5
464
  8
0
 62
     0
 10
502751.40271413408
 20
4625119.584738031
 30
0.0
 40
2.5
  1
R16,51
 50
72.913027805637057
  0
ENDBLK
  5
466
  8
0
  0
BLOCK
  8
0
  2
*D6
 70
     1
 10
0.0
 20
0.0
 30
0.0
  3
*D6
  1

  0
LINE
  5
2DE
  8
0
 62
     0
 10
502783.09025654307
 20
4625135.5032022363
 30
0.0
 11
502768.64966167859
 21
4625137.3101402326
 31
0.0
  0
INSERT
  5
2DF
  8
0
  2
*U7
 10
0.0
 20
0.0
 30
0.0
  0
SOLID
  5
2E0
  8
0
 62
     0
 10
502768.70139535388
 20
4625137.7235827772
 30
0.0
 11
502768.59792800329
 21
4625136.896697687
 31
0.0
 12
502766.16900640889
 22
4625137.6205422822
 32
0.0
 13
502766.16900640889
 23
4625137.6205422822
 33
0.0
  0
POINT
  5
2E1
  8
DEFPOINTS
 62
     0
 10
502766.16900640889
 20
4625137.6205422822
 30
0.0
  0
POINT
  5
2E2
  8
DEFPOINTS
 62
     0
 10
502778.9845056847
 20
4625136.0169509631
 30
0.0
  0
ENDBLK
  5
28E
  8
0
  0
BLOCK
  8
0
  2
*U7
 70
     1
 10
0.0
 20
0.0
 30
0.0
  3
*U7
  1

  0
TEXT
  5
468
  8
0
 62
     0
 10
502771.61705201282
 20
4625138.0671069156
 30
0.0
 40
2.5
  1
R12,92
 50
352.86770319047872
  0
ENDBLK
  5
46A
  8
0
  0
ENDSEC
  0
SECTION
  2
ENTITIES
  0
POLYLINE
  5
507
  8
0
 66
     1
 10
0.0
 20
0.0
 30
0.0
  0
VERTEX
  5
552
  8
0
 10
502837.848
 20
4625064.7960000001
 30
0.0
  0
VERTEX
  5
553
  8
0
 10
502821.52799999999
 20
4625034.6860000007
 30
0.0
  0
VERTEX
  5
554
  8
0
 10
502781.74884441617
 20
4625023.2562097684
 30
0.0
  0
VERTEX
  5
555
  8
0
 10
502741.51551379258
 20
4625042.0678607933
 30
0.0
 42
-1.2970249257453439
  0
VERTEX
  5
556
  8
0
 10
502753.89532567671
 20
4625056.9292152068
 30
0.0
  0
VERTEX
  5
557
  8
0
 10
502758.69784429658
 20
4625050.3901098082
 30
0.0
 42
1.87475966162906
  0
VERTEX
  5
558
  8
0
 10
502764.33971786819
 20
4625066.0127673326
 30
0.0
  0
VERTEX
  5
559
  8
0
 10
502743.35560919531
 20
4625060.835432305
 30
0.0
 42
0.7072623598091457
  0
VERTEX
  5
55A
  8
0
 10
502741.51551379258
 20
4625042.0678607933
 30
0.0
  0
VERTEX
  5
55B
  8
0
 10
502781.748844416
 20
4625023.2562097684
 30
0.0
  0
VERTEX
  5
55C
  8
0
 10
502821.52799999999
 20
4625034.6860000007
 30
0.0
  0
VERTEX
  5
55D
  8
0
 10
502812.1752693209
 20
4625063.8598811803
 30
0.0
  0
SEQEND
  5
55E
  8
0
  0
ENDSEC
  0
EOF
