  0
SECTION
  2
HEADER
  9
$ACADVER
  1
AC1009
  9
$INSBASE
 10
0.0
 20
0.0
 30
0.0
  9
$EXTMIN
 10
-32.920237060554427
 20
-25.5286982157204
 30
-0.0015258207003583
  9
$EXTMAX
 10
43.02768704765549
 20
73.877941466935226
 30
0.0000000349246037
  9
$LIMMIN
 10
0.0
 20
0.0
  9
$LIMMAX
 10
420.0
 20
297.0
  9
$ORTHOMODE
 70
     0
  9
$REGENMODE
 70
     1
  9
$FILLMODE
 70
     1
  9
$QTEXTMODE
 70
     0
  9
$MIRRTEXT
 70
     0
  9
$DRAGMODE
 70
     2
  9
$LTSCALE
 40
1.0
  9
$OSMODE
 70
   295
  9
$ATTMODE
 70
     1
  9
$TEXTSIZE
 40
2.5
  9
$TRACEWID
 40
1.0
  9
$TEXTSTYLE
  7
STANDARD
  9
$CLAYER
  8
0
  9
$CELTYPE
  6
BYLAYER
  9
$CECOLOR
 62
     1
  9
$DIMSCALE
 40
1.0
  9
$DIMASZ
 40
2.5
  9
$DIMEXO
 40
0.625
  9
$DIMDLI
 40
3.75
  9
$DIMRND
 40
0.0
  9
$DIMDLE
 40
0.0
  9
$DIMEXE
 40
1.25
  9
$DIMTP
 40
0.0
  9
$DIMTM
 40
0.0
  9
$DIMTXT
 40
2.5
  9
$DIMCEN
 40
2.5
  9
$DIMTSZ
 40
0.0
  9
$DIMTOL
 70
     0
  9
$DIMLIM
 70
     0
  9
$DIMTIH
 70
     0
  9
$DIMTOH
 70
     0
  9
$DIMSE1
 70
     0
  9
$DIMSE2
 70
     0
  9
$DIMTAD
 70
     1
  9
$DIMZIN
 70
     8
  9
$DIMBLK
  1

  9
$DIMASO
 70
     1
  9
$DIMSHO
 70
     1
  9
$DIMPOST
  1

  9
$DIMAPOST
  1

  9
$DIMALT
 70
     0
  9
$DIMALTD
 70
     3
  9
$DIMALTF
 40
0.03937007874016
  9
$DIMLFAC
 40
1.0
  9
$DIMTOFL
 70
     1
  9
$DIMTVP
 40
0.0
  9
$DIMTIX
 70
     0
  9
$DIMSOXD
 70
     0
  9
$DIMSAH
 70
     0
  9
$DIMBLK1
  1

  9
$DIMBLK2
  1

  9
$DIMSTYLE
  2
ISO-25
  9
$DIMCLRD
 70
     0
  9
$DIMCLRE
 70
     0
  9
$DIMCLRT
 70
     0
  9
$DIMTFAC
 40
1.0
  9
$DIMGAP
 40
0.625
  9
$LUNITS
 70
     2
  9
$LUPREC
 70
     4
  9
$SKETCHINC
 40
1.0
  9
$FILLETRAD
 40
15.0
  9
$AUNITS
 70
     0
  9
$AUPREC
 70
     0
  9
$MENU
  1
.
  9
$ELEVATION
 40
0.0
  9
$PELEVATION
 40
0.0
  9
$THICKNESS
 40
0.0
  9
$LIMCHECK
 70
     0
  9
$BLIPMODE
 70
     0
  9
$CHAMFERA
 40
0.0
  9
$CHAMFERB
 40
0.0
  9
$SKPOLY
 70
     0
  9
$TDCREATE
 40
2457274.9890884259
  9
$TDUPDATE
 40
2457275.4615124539
  9
$TDINDWG
 40
0.4461529977
  9
$TDUSRTIMER
 40
0.4461500579
  9
$USRTIMER
 70
     1
  9
$ANGBASE
 50
0.0
  9
$ANGDIR
 70
     0
  9
$PDMODE
 70
     0
  9
$PDSIZE
 40
0.0
  9
$PLINEWID
 40
0.0
  9
$COORDS
 70
     1
  9
$SPLFRAME
 70
     0
  9
$SPLINETYPE
 70
     6
  9
$SPLINESEGS
 70
     8
  9
$ATTDIA
 70
     0
  9
$ATTREQ
 70
     1
  9
$HANDLING
 70
     1
  9
$HANDSEED
  5
522
  9
$SURFTAB1
 70
     6
  9
$SURFTAB2
 70
     6
  9
$SURFTYPE
 70
     6
  9
$SURFU
 70
     6
  9
$SURFV
 70
     6
  9
$UCSNAME
  2

  9
$UCSORG
 10
0.0
 20
0.0
 30
0.0
  9
$UCSXDIR
 10
1.0
 20
0.0
 30
0.0
  9
$UCSYDIR
 10
0.0
 20
1.0
 30
0.0
  9
$PUCSNAME
  2

  9
$PUCSORG
 10
0.0
 20
0.0
 30
0.0
  9
$PUCSXDIR
 10
1.0
 20
0.0
 30
0.0
  9
$PUCSYDIR
 10
0.0
 20
1.0
 30
0.0
  9
$USERI1
 70
     0
  9
$USERI2
 70
     0
  9
$USERI3
 70
     0
  9
$USERI4
 70
     0
  9
$USERI5
 70
     0
  9
$USERR1
 40
0.0
  9
$USERR2
 40
0.0
  9
$USERR3
 40
0.0
  9
$USERR4
 40
0.0
  9
$USERR5
 40
0.0
  9
$WORLDVIEW
 70
     1
  9
$SHADEDGE
 70
     3
  9
$SHADEDIF
 70
    70
  9
$TILEMODE
 70
     1
  9
$MAXACTVP
 70
    64
  9
$PLIMCHECK
 70
     0
  9
$PEXTMIN
 10
0.0
 20
0.0
 30
0.0
  9
$PEXTMAX
 10
0.0
 20
0.0
 30
0.0
  9
$PLIMMIN
 10
0.0
 20
0.0
  9
$PLIMMAX
 10
12.0
 20
9.0
  9
$UNITMODE
 70
     0
  9
$VISRETAIN
 70
     1
  9
$PLINEGEN
 70
     0
  9
$PSLTSCALE
 70
     1
  0
ENDSEC
  0
SECTION
  2
TABLES
  0
TABLE
  2
VPORT
 70
     1
  0
VPORT
  2
*ACTIVE
 70
     0
 10
0.0
 20
0.0
 11
1.0
 21
1.0
 12
5.0537249935505306
 22
24.174621625607418
 13
0.0
 23
0.0
 14
10.0
 24
10.0
 15
10.0
 25
10.0
 16
0.0
 26
0.0
 36
1.0
 17
0.0
 27
0.0
 37
0.0
 40
100.26606308048829
 41
1.797979797979798
 42
50.0
 43
0.0
 44
0.0
 50
0.0
 51
0.0
 71
     0
 72
  1000
 73
     1
 74
     3
 75
     0
 76
     1
 77
     0
 78
     0
  0
ENDTAB
  0
TABLE
  2
LTYPE
 70
     2
  0
LTYPE
  2
CONTINUOUS
 70
     0
  3
Solid line
 72
    65
 73
     0
 40
0.0
  0
ENDTAB
  0
TABLE
  2
LAYER
 70
     2
  0
LAYER
  2
0
 70
     0
 62
     7
  6
CONTINUOUS
  0
LAYER
  2
DEFPOINTS
 70
     0
 62
     7
  6
CONTINUOUS
  0
ENDTAB
  0
TABLE
  2
STYLE
 70
     2
  0
STYLE
  2
STANDARD
 70
     0
 40
0.0
 41
1.0
 50
0.0
 71
     0
 42
2.5
  3
txt
  4

  0
STYLE
  2
ANNOTATIVE
 70
     0
 40
0.0
 41
1.0
 50
0.0
 71
     0
 42
2.5
  3
txt
  4

  0
ENDTAB
  0
TABLE
  2
VIEW
 70
     1
  0
ENDTAB
  0
TABLE
  2
UCS
 70
     0
  0
ENDTAB
  0
TABLE
  2
APPID
 70
     9
  0
APPID
  2
ACAD
 70
     0
  0
APPID
  2
ACAD_PSEXT
 70
     0
  0
APPID
  2
ACADANNOPO
 70
     0
  0
APPID
  2
ACADANNOTATIVE
 70
     0
  0
APPID
  2
ACAD_DSTYLE_DIMJAG
 70
     0
  0
APPID
  2
ACAD_DSTYLE_DIMTALN
 70
     0
  0
APPID
  2
ACAD_MLEADERVER
 70
     0
  0
APPID
  2
ACAD_NAV_VCDISPLAY
 70
     0
  0
APPID
  2
ACAD_EXEMPT_FROM_CAD_STANDARDS
 70
     0
  0
ENDTAB
  0
TABLE
  2
DIMSTYLE
 70
     4
  0
DIMSTYLE
  2
STANDARD
 70
     0
  3

  4

  5

  6

  7

 40
1.0
 41
0.18
 42
0.0625
 43
0.38
 44
0.18
 45
0.0
 46
0.0
 47
0.0
 48
0.0
140
0.18
141
0.09
142
0.0
143
25.399999999999999
144
1.0
145
0.0
146
1.0
147
0.09
 71
     0
 72
     0
 73
     1
 74
     1
 75
     0
 76
     0
 77
     0
 78
     0
170
     0
171
     2
172
     0
173
     0
174
     0
175
     0
176
     0
177
     0
178
     0
  0
DIMSTYLE
  2
ANNOTATIVE
 70
     0
  3

  4

  5

  6

  7

 40
0.0
 41
2.5
 42
0.625
 43
3.75
 44
1.25
 45
0.0
 46
0.0
 47
0.0
 48
0.0
140
2.5
141
2.5
142
0.0
143
0.03937007874016
144
1.0
145
0.0
146
1.0
147
0.625
 71
     0
 72
     0
 73
     0
 74
     0
 75
     0
 76
     0
 77
     1
 78
     8
170
     0
171
     3
172
     1
173
     0
174
     0
175
     0
176
     0
177
     0
178
     0
  0
DIMSTYLE
  2
ISO-25
 70
     0
  3

  4

  5

  6

  7

 40
1.0
 41
2.5
 42
0.625
 43
3.75
 44
1.25
 45
0.0
 46
0.0
 47
0.0
 48
0.0
140
2.5
141
2.5
142
0.0
143
0.03937007874016
144
1.0
145
0.0
146
1.0
147
0.625
 71
     0
 72
     0
 73
     0
 74
     0
 75
     0
 76
     0
 77
     1
 78
     8
170
     0
171
     3
172
     1
173
     0
174
     0
175
     0
176
     0
177
     0
178
     0
  0
ENDTAB
  0
ENDSEC
  0
SECTION
  2
BLOCKS
  0
BLOCK
  8
0
  2
$MODEL_SPACE
 70
     0
 10
0.0
 20
0.0
 30
0.0
  3
$MODEL_SPACE
  1

  0
ENDBLK
  5
21
  8
0
  0
BLOCK
 67
     1
  8
0
  2
$PAPER_SPACE
 70
     0
 10
0.0
 20
0.0
 30
0.0
  3
$PAPER_SPACE
  1

  0
ENDBLK
  5
D5
 67
     1
  8
0
  0
BLOCK
  8
0
 62
     1
  2
*D2
 70
     1
 10
0.0
 20
0.0
 30
0.0
  3
*D2
  1

  0
LINE
  5
2E0
  8
0
 62
     0
 10
-641.5587736968439
 20
-0.227442085075495
 30
0.0
 11
-657.59497227420889
 21
-24.203045508520059
 31
0.0
  0
LINE
  5
2E1
  8
0
 62
     0
 10
-602.95699838394455
 20
-26.04642663464341
 30
0.0
 11
-618.99319696130965
 21
-50.022030058087921
 31
0.0
  0
LINE
  5
2E2
  8
0
 62
     0
 10
-654.82199913384932
 20
-24.553930051986409
 30
0.0
 11
-620.37627321075252
 21
-47.593120819720291
 31
0.0
  0
SOLID
  5
2E3
  8
0
 62
     0
 10
-654.59034965202966
 20
-24.207592602836201
 30
0.0
 11
-655.05364861566875
 21
-24.900267501136629
 31
0.0
 12
-656.90002382875048
 22
-23.16403316106943
 32
0.0
 13
-656.90002382875048
 23
-23.16403316106943
 33
0.0
  0
SOLID
  5
2E4
  8
0
 62
     0
 10
-620.14462372893297
 20
-47.246783370570078
 30
0.0
 11
-620.60792269257195
 21
-47.93945826887051
 31
0.0
 12
-618.29824851585124
 22
-48.983017710637277
 32
0.0
 13
-618.29824851585124
 23
-48.983017710637277
 33
0.0
  0
INSERT
  5
2E5
  8
0
 62
     1
  2
*U4
 10
0.0
 20
0.0
 30
0.0
  0
POINT
  5
2E6
  8
DEFPOINTS
 62
     0
 10
-641.21129947411464
 20
0.2920640886497949
 30
0.0
  0
POINT
  5
2E7
  8
DEFPOINTS
 62
     0
 10
-602.6095241612154
 20
-25.52692046091812
 30
0.0
  0
POINT
  5
2E8
  8
DEFPOINTS
 62
     0
 10
-618.29824851585124
 20
-48.983017710637277
 30
0.0
  0
ENDBLK
  5
2D5
  8
0
 62
     1
  0
BLOCK
  8
0
 62
     1
  2
*D3
 70
     1
 10
0.0
 20
0.0
 30
0.0
  3
*D3
  1

  0
LINE
  5
4B2
  8
0
 62
     0
 10
-33.246674917239019
 20
-5.7870296487434549
 30
0.0
 11
-47.7983187433342
 21
-27.54308610130693
 31
0.0
  0
LINE
  5
4B3
  8
0
 62
     0
 10
-2.9569983839446499
 20
-26.04642663464341
 30
0.0
 11
-17.50864221003982
 21
-47.802483087206859
 31
0.0
  0
LINE
  5
4B4
  8
0
 62
     0
 10
-45.025345602974497
 20
-27.893970644773312
 30
0.0
 11
-18.89171845948254
 21
-45.37357384883925
 31
0.0
  0
SOLID
  5
4B5
  8
0
 62
     0
 10
-44.793696121154987
 20
-27.54763319562311
 30
0.0
 11
-45.256995084793992
 21
-28.240308093923499
 31
0.0
 12
-47.103370297875699
 22
-26.504073753856311
 32
0.0
 13
-47.103370297875699
 23
-26.504073753856311
 33
0.0
  0
SOLID
  5
4B6
  8
0
 62
     0
 10
-18.660068977663041
 20
-45.027236399689052
 30
0.0
 11
-19.123367941302039
 21
-45.719911297989448
 31
0.0
 12
-16.81369376458133
 22
-46.763470739756258
 32
0.0
 13
-16.81369376458133
 23
-46.763470739756258
 33
0.0
  0
INSERT
  5
4B7
  8
0
 62
     1
  2
*U5
 10
0.0
 20
0.0
 30
0.0
  0
POINT
  5
4B8
  8
DEFPOINTS
 62
     0
 10
-32.899200694509773
 20
-5.2675234750181508
 30
0.0
  0
POINT
  5
4B9
  8
DEFPOINTS
 62
     0
 10
-2.6095241612154019
 20
-25.526920460918099
 30
0.0
  0
POINT
  5
4BA
  8
DEFPOINTS
 62
     0
 10
-16.81369376458133
 20
-46.763470739756258
 30
0.0
  0
ENDBLK
  5
2ED
  8
0
 62
     1
  0
BLOCK
  8
0
 62
     1
  2
*U4
 70
     1
 10
0.0
 20
0.0
 30
0.0
  3
*U4
  1

  0
TEXT
  5
51B
  8
0
 62
     0
 10
-640.55726923535235
 20
-32.748080170738049
 30
0.0
 40
2.5
  1
46,44
 50
326.22322304417452
  0
ENDBLK
  5
51D
  8
0
 62
     1
  0
BLOCK
  8
0
 62
     1
  2
*U5
 70
     1
 10
0.0
 20
0.0
 30
0.0
  3
*U5
  1

  0
TEXT
  5
51F
  8
0
 62
     0
 10
-34.959189474121082
 20
-33.27988434408698
 30
0.0
 40
2.5
  1
36,44
 50
326.22322304417452
  0
ENDBLK
  5
521
  8
0
 62
     1
  0
ENDSEC
  0
SECTION
  2
ENTITIES
  0
POLYLINE
  5
2C3
  8
0
 62
     1
 66
     1
 10
0.0
 20
0.0
 30
0.0
  0
VERTEX
  5
503
  8
0
 62
     1
 10
19.949653981038072
 20
73.746413336206871
 30
0.0
  0
VERTEX
  5
504
  8
0
 62
     1
 10
-32.899200694509773
 20
-5.2675234750181508
 30
0.0
  0
VERTEX
  5
505
  8
0
 62
     1
 10
-2.6095241612154041
 20
-25.52692046091811
 30
0.0
  0
VERTEX
  5
506
  8
0
 62
     1
 10
19.661598914158841
 20
7.7704730624805878
 30
0.0
 42
0.4142135623730927
  0
VERTEX
  5
507
  8
0
 62
     1
 10
15.532832090253351
 20
28.578002577389711
 30
0.0
  0
VERTEX
  5
508
  8
0
 62
     1
 10
10.17945189577358
 20
32.158636872285747
 30
0.0
 42
0.4142135623730935
  0
VERTEX
  5
509
  8
0
 62
     1
 10
-10.628077619135521
 20
28.029870048380388
 30
0.0
  0
VERTEX
  5
50A
  8
0
 62
     1
 10
-32.899200694509773
 20
-5.2675234750181508
 30
0.0
  0
VERTEX
  5
50B
  8
0
 62
     1
 10
-2.6095241612154041
 20
-25.52692046091811
 30
0.0
  0
VERTEX
  5
50C
  8
0
 62
     1
 10
29.525596109386811
 20
22.518063258611729
 30
0.0
 42
0.148455396938866
  0
VERTEX
  5
50D
  8
0
 62
     1
 10
32.057447939979511
 20
30.857444604113621
 30
0.0
  0
VERTEX
  5
50E
  8
0
 62
     1
 10
32.057447939979511
 20
45.604239684886842
 30
0.0
 42
0.2503627965568234
  0
VERTEX
  5
50F
  8
0
 62
     1
 10
25.396829285481431
 20
58.072387854294128
 30
0.0
  0
VERTEX
  5
510
  8
0
 62
     1
 10
14.39006641737001
 20
65.434314556602061
 30
0.0
 42
0.9999999999999994
  0
VERTEX
  5
511
  8
0
 62
     1
 10
-10.62807761913632
 20
28.029870048380591
 30
0.0
  0
VERTEX
  5
512
  8
0
 62
     1
 10
19.661598914158269
 20
7.7704730624806997
 30
0.0
 42
1.00000000000002
  0
VERTEX
  5
513
  8
0
 62
     1
 10
36.340361605161888
 20
32.706769401295453
 30
0.0
  0
VERTEX
  5
514
  8
0
 62
     1
 10
6.0506850718679743
 20
52.966166387194981
 30
0.0
 42
1.0
  0
VERTEX
  5
515
  8
0
 62
     1
 10
-18.96745896463835
 20
15.56172187897347
 30
0.0
  0
VERTEX
  5
516
  8
0
 62
     1
 10
11.322217568656241
 20
-4.6976751069265603
 30
0.0
 42
1.0000000000000131
  0
VERTEX
  5
517
  8
0
 62
     1
 10
28.000980259660199
 20
20.238621231888061
 30
0.0
  0
VERTEX
  5
518
  8
0
 62
     1
 10
-10.6007950532387
 20
46.057605781455479
 30
0.0
  0
SEQEND
  5
519
  8
0
 62
     1
  0
ENDSEC
  0
EOF
