  0
SECTION
  2
HEADER
  9
$ACADVER
  1
AC1009
  9
$INSBASE
 10
0.0
 20
0.0
 30
0.0
  9
$EXTMIN
 10
-242.12578204490211
 20
-512.79314361425236
 30
0.0
  9
$EXTMAX
 10
1385.891957210391
 20
367.2900974509393
 30
0.0
  9
$LIMMIN
 10
0.0
 20
0.0
  9
$LIMMAX
 10
420.0
 20
297.0
  9
$ORTHOMODE
 70
     0
  9
$REGENMODE
 70
     1
  9
$FILLMODE
 70
     1
  9
$QTEXTMODE
 70
     0
  9
$MIRRTEXT
 70
     0
  9
$DRAGMODE
 70
     2
  9
$LTSCALE
 40
1.0
  9
$OSMODE
 70
   111
  9
$ATTMODE
 70
     1
  9
$TEXTSIZE
 40
2.5
  9
$TRACEWID
 40
1.0
  9
$TEXTSTYLE
  7
STANDARD
  9
$CLAYER
  8
0
  9
$CELTYPE
  6
BYLAYER
  9
$CECOLOR
 62
   256
  9
$DIMSCALE
 40
1.0
  9
$DIMASZ
 40
2.5
  9
$DIMEXO
 40
0.625
  9
$DIMDLI
 40
3.75
  9
$DIMRND
 40
0.0
  9
$DIMDLE
 40
0.0
  9
$DIMEXE
 40
1.25
  9
$DIMTP
 40
0.0
  9
$DIMTM
 40
0.0
  9
$DIMTXT
 40
2.5
  9
$DIMCEN
 40
2.5
  9
$DIMTSZ
 40
0.0
  9
$DIMTOL
 70
     0
  9
$DIMLIM
 70
     0
  9
$DIMTIH
 70
     0
  9
$DIMTOH
 70
     0
  9
$DIMSE1
 70
     0
  9
$DIMSE2
 70
     0
  9
$DIMTAD
 70
     1
  9
$DIMZIN
 70
     8
  9
$DIMBLK
  1

  9
$DIMASO
 70
     1
  9
$DIMSHO
 70
     1
  9
$DIMPOST
  1

  9
$DIMAPOST
  1

  9
$DIMALT
 70
     0
  9
$DIMALTD
 70
     3
  9
$DIMALTF
 40
0.03937007874016
  9
$DIMLFAC
 40
1.0
  9
$DIMTOFL
 70
     1
  9
$DIMTVP
 40
0.0
  9
$DIMTIX
 70
     0
  9
$DIMSOXD
 70
     0
  9
$DIMSAH
 70
     0
  9
$DIMBLK1
  1

  9
$DIMBLK2
  1

  9
$DIMSTYLE
  2
ISO-25
  9
$DIMCLRD
 70
     0
  9
$DIMCLRE
 70
     0
  9
$DIMCLRT
 70
     0
  9
$DIMTFAC
 40
1.0
  9
$DIMGAP
 40
0.625
  9
$LUNITS
 70
     2
  9
$LUPREC
 70
     4
  9
$SKETCHINC
 40
1.0
  9
$FILLETRAD
 40
100.0
  9
$AUNITS
 70
     0
  9
$AUPREC
 70
     0
  9
$MENU
  1
.
  9
$ELEVATION
 40
0.0
  9
$PELEVATION
 40
0.0
  9
$THICKNESS
 40
0.0
  9
$LIMCHECK
 70
     0
  9
$BLIPMODE
 70
     0
  9
$CHAMFERA
 40
0.0
  9
$CHAMFERB
 40
0.0
  9
$SKPOLY
 70
     0
  9
$TDCREATE
 40
2457206.6825066782
  9
$TDUPDATE
 40
2457206.6929627778
  9
$TDINDWG
 40
0.0104564468
  9
$TDUSRTIMER
 40
0.0104564468
  9
$USRTIMER
 70
     1
  9
$ANGBASE
 50
0.0
  9
$ANGDIR
 70
     0
  9
$PDMODE
 70
     0
  9
$PDSIZE
 40
0.0
  9
$PLINEWID
 40
0.0
  9
$COORDS
 70
     1
  9
$SPLFRAME
 70
     0
  9
$SPLINETYPE
 70
     6
  9
$SPLINESEGS
 70
     8
  9
$ATTDIA
 70
     0
  9
$ATTREQ
 70
     1
  9
$HANDLING
 70
     1
  9
$HANDSEED
  5
2C1
  9
$SURFTAB1
 70
     6
  9
$SURFTAB2
 70
     6
  9
$SURFTYPE
 70
     6
  9
$SURFU
 70
     6
  9
$SURFV
 70
     6
  9
$UCSNAME
  2

  9
$UCSORG
 10
0.0
 20
0.0
 30
0.0
  9
$UCSXDIR
 10
1.0
 20
0.0
 30
0.0
  9
$UCSYDIR
 10
0.0
 20
1.0
 30
0.0
  9
$PUCSNAME
  2

  9
$PUCSORG
 10
0.0
 20
0.0
 30
0.0
  9
$PUCSXDIR
 10
1.0
 20
0.0
 30
0.0
  9
$PUCSYDIR
 10
0.0
 20
1.0
 30
0.0
  9
$USERI1
 70
     0
  9
$USERI2
 70
     0
  9
$USERI3
 70
     0
  9
$USERI4
 70
     0
  9
$USERI5
 70
     0
  9
$USERR1
 40
0.0
  9
$USERR2
 40
0.0
  9
$USERR3
 40
0.0
  9
$USERR4
 40
0.0
  9
$USERR5
 40
0.0
  9
$WORLDVIEW
 70
     1
  9
$SHADEDGE
 70
     3
  9
$SHADEDIF
 70
    70
  9
$TILEMODE
 70
     1
  9
$MAXACTVP
 70
    64
  9
$PLIMCHECK
 70
     0
  9
$PEXTMIN
 10
0.0
 20
0.0
 30
0.0
  9
$PEXTMAX
 10
0.0
 20
0.0
 30
0.0
  9
$PLIMMIN
 10
0.0
 20
0.0
  9
$PLIMMAX
 10
12.0
 20
9.0
  9
$UNITMODE
 70
     0
  9
$VISRETAIN
 70
     1
  9
$PLINEGEN
 70
     0
  9
$PSLTSCALE
 70
     1
  0
ENDSEC
  0
SECTION
  2
TABLES
  0
TABLE
  2
VPORT
 70
     1
  0
VPORT
  2
*ACTIVE
 70
     0
 10
0.0
 20
0.0
 11
1.0
 21
1.0
 12
628.62489959708432
 22
-53.710375342125083
 13
0.0
 23
0.0
 14
10.0
 24
10.0
 15
10.0
 25
10.0
 16
0.0
 26
0.0
 36
1.0
 17
0.0
 27
0.0
 37
0.0
 40
1203.234063012643
 41
1.7979797979797969
 42
50.0
 43
0.0
 44
0.0
 50
0.0
 51
0.0
 71
     0
 72
  1000
 73
     1
 74
     3
 75
     0
 76
     1
 77
     0
 78
     0
  0
ENDTAB
  0
TABLE
  2
LTYPE
 70
     2
  0
LTYPE
  2
CONTINUOUS
 70
     0
  3
Solid line
 72
    65
 73
     0
 40
0.0
  0
ENDTAB
  0
TABLE
  2
LAYER
 70
     1
  0
LAYER
  2
0
 70
     0
 62
     7
  6
CONTINUOUS
  0
ENDTAB
  0
TABLE
  2
STYLE
 70
     2
  0
STYLE
  2
STANDARD
 70
     0
 40
0.0
 41
1.0
 50
0.0
 71
     0
 42
2.5
  3
txt
  4

  0
STYLE
  2
ANNOTATIVE
 70
     0
 40
0.0
 41
1.0
 50
0.0
 71
     0
 42
2.5
  3
txt
  4

  0
ENDTAB
  0
TABLE
  2
VIEW
 70
     0
  0
ENDTAB
  0
TABLE
  2
UCS
 70
     0
  0
ENDTAB
  0
TABLE
  2
APPID
 70
     9
  0
APPID
  2
ACAD
 70
     0
  0
APPID
  2
ACAD_PSEXT
 70
     0
  0
APPID
  2
ACADANNOPO
 70
     0
  0
APPID
  2
ACADANNOTATIVE
 70
     0
  0
APPID
  2
ACAD_DSTYLE_DIMJAG
 70
     0
  0
APPID
  2
ACAD_DSTYLE_DIMTALN
 70
     0
  0
APPID
  2
ACAD_MLEADERVER
 70
     0
  0
APPID
  2
ACAD_NAV_VCDISPLAY
 70
     0
  0
APPID
  2
ACAD_EXEMPT_FROM_CAD_STANDARDS
 70
     0
  0
ENDTAB
  0
TABLE
  2
DIMSTYLE
 70
     4
  0
DIMSTYLE
  2
STANDARD
 70
     0
  3

  4

  5

  6

  7

 40
1.0
 41
0.18
 42
0.0625
 43
0.38
 44
0.18
 45
0.0
 46
0.0
 47
0.0
 48
0.0
140
0.18
141
0.09
142
0.0
143
25.399999999999999
144
1.0
145
0.0
146
1.0
147
0.09
 71
     0
 72
     0
 73
     1
 74
     1
 75
     0
 76
     0
 77
     0
 78
     0
170
     0
171
     2
172
     0
173
     0
174
     0
175
     0
176
     0
177
     0
178
     0
  0
DIMSTYLE
  2
ANNOTATIVE
 70
     0
  3

  4

  5

  6

  7

 40
0.0
 41
2.5
 42
0.625
 43
3.75
 44
1.25
 45
0.0
 46
0.0
 47
0.0
 48
0.0
140
2.5
141
2.5
142
0.0
143
0.03937007874016
144
1.0
145
0.0
146
1.0
147
0.625
 71
     0
 72
     0
 73
     0
 74
     0
 75
     0
 76
     0
 77
     1
 78
     8
170
     0
171
     3
172
     1
173
     0
174
     0
175
     0
176
     0
177
     0
178
     0
  0
DIMSTYLE
  2
ISO-25
 70
     0
  3

  4

  5

  6

  7

 40
1.0
 41
2.5
 42
0.625
 43
3.75
 44
1.25
 45
0.0
 46
0.0
 47
0.0
 48
0.0
140
2.5
141
2.5
142
0.0
143
0.03937007874016
144
1.0
145
0.0
146
1.0
147
0.625
 71
     0
 72
     0
 73
     0
 74
     0
 75
     0
 76
     0
 77
     1
 78
     8
170
     0
171
     3
172
     1
173
     0
174
     0
175
     0
176
     0
177
     0
178
     0
  0
ENDTAB
  0
ENDSEC
  0
SECTION
  2
BLOCKS
  0
BLOCK
  8
0
  2
$MODEL_SPACE
 70
     0
 10
0.0
 20
0.0
 30
0.0
  3
$MODEL_SPACE
  1

  0
ENDBLK
  5
21
  8
0
  0
BLOCK
 67
     1
  8
0
  2
$PAPER_SPACE
 70
     0
 10
0.0
 20
0.0
 30
0.0
  3
$PAPER_SPACE
  1

  0
ENDBLK
  5
D5
 67
     1
  8
0
  0
ENDSEC
  0
SECTION
  2
ENTITIES
  0
POLYLINE
  5
21C
  8
0
 66
     1
 10
0.0
 20
0.0
 30
0.0
  0
VERTEX
  5
271
  8
0
 10
0.0
 20
0.0
 30
0.0
  0
VERTEX
  5
272
  8
0
 10
0.0000000000000071
 20
116.60192974659741
 30
0.0
 42
-0.4142135623730951
  0
VERTEX
  5
273
  8
0
 10
50.000000000000007
 20
166.60192974659739
 30
0.0
  0
VERTEX
  5
274
  8
0
 10
137.2025202956936
 20
166.60192974659739
 30
0.0
 42
-0.4142135623730951
  0
VERTEX
  5
275
  8
0
 10
187.2025202956936
 20
116.60192974659741
 30
0.0
  0
VERTEX
  5
276
  8
0
 10
187.20252029569349
 20
-76.844553841123343
 30
0.0
  0
VERTEX
  5
277
  8
0
 10
48.25507040178266
 20
-76.844553841123314
 30
0.0
 42
-0.4142135623730951
  0
VERTEX
  5
278
  8
0
 10
-51.744929598217361
 20
23.155446158876671
 30
0.0
  0
VERTEX
  5
279
  8
0
 10
-51.74492959821734
 20
225.60427711438069
 30
0.0
 42
-0.4142135623730951
  0
VERTEX
  5
27A
  8
0
 10
-41.74492959821734
 20
235.60427711438069
 30
0.0
  0
VERTEX
  5
27B
  8
0
 10
209.01045972449609
 20
235.60427711438069
 30
0.0
 42
-0.4142135623730951
  0
VERTEX
  5
27C
  8
0
 10
219.01045972449609
 20
225.60427711438069
 30
0.0
  0
VERTEX
  5
27D
  8
0
 10
219.010459724496
 20
-103.20500122853311
 30
0.0
  0
VERTEX
  5
27E
  8
0
 10
386.5839961114516
 20
50.305838700810568
 30
0.0
  0
VERTEX
  5
27F
  8
0
 10
219.010459724496
 20
-103.20500122853311
 30
0.0
  0
VERTEX
  5
280
  8
0
 10
435.45961026394792
 20
-103.20500122853311
 30
0.0
  0
VERTEX
  5
281
  8
0
 10
527.0044131067765
 20
134.03902456067081
 30
0.0
  0
VERTEX
  5
282
  8
0
 10
569.11571729176387
 20
158.89696411679299
 30
0.0
  0
VERTEX
  5
283
  8
0
 10
640.48963205278415
 20
148.04266192316049
 30
0.0
  0
VERTEX
  5
284
  8
0
 10
671.52176814205757
 20
89.119309349823766
 30
0.0
  0
VERTEX
  5
285
  8
0
 10
653.67828882477033
 20
20.11696198204061
 30
0.0
  0
VERTEX
  5
286
  8
0
 10
611.0091013885027
 20
-3.1422565061109249
 30
0.0
  0
VERTEX
  5
287
  8
0
 10
549.72063254948398
 20
20.89226938122658
 30
0.0
  0
VERTEX
  5
288
  8
0
 10
481.23201168536229
 20
15.417011666068801
 30
0.0
  0
VERTEX
  5
289
  8
0
 10
456.6242242816628
 20
117.8056782373062
 30
0.0
  0
VERTEX
  5
28A
  8
0
 10
456.6242242816628
 20
176.7290308106428
 30
0.0
  0
VERTEX
  5
28B
  8
0
 10
520.2401031392676
 20
239.52892037990921
 30
0.0
  0
VERTEX
  5
28C
  8
0
 10
642.81704207137
 20
239.52892037990921
 30
0.0
  0
VERTEX
  5
28D
  8
0
 10
726.60381026484765
 20
176.7290308106428
 30
0.0
  0
VERTEX
  5
28E
  8
0
 10
739.01666369730526
 20
92.220538249082196
 30
0.0
  0
VERTEX
  5
28F
  8
0
 10
690.91685288433769
 20
-36.480469091223661
 30
0.0
  0
VERTEX
  5
290
  8
0
 10
495.4143937662227
 20
-16.32248019981591
 30
0.0
  0
VERTEX
  5
291
  8
0
 10
418.6098568825671
 20
21.667576082926981
 30
0.0
  0
VERTEX
  5
292
  8
0
 10
389.12932747235072
 20
128.6599804309387
 30
0.0
  0
VERTEX
  5
293
  8
0
 10
409.13527944893059
 20
248.6189310481831
 30
0.0
 42
-0.2657439112999119
  0
VERTEX
  5
294
  8
0
 10
415.41479029950131
 20
256.30949992613398
 30
0.0
  0
VERTEX
  5
295
  8
0
 10
544.22775012334364
 20
305.7653169732676
 30
0.0
 42
-0.1649264676683677
  0
VERTEX
  5
296
  8
0
 10
550.64506267212721
 20
306.02003190355327
 30
0.0
  0
VERTEX
  5
297
  8
0
 10
794.09870582009535
 20
234.10176928309289
 30
0.0
  0
VERTEX
  5
298
  8
0
 10
858.49038927129311
 20
30.195956079001689
 30
0.0
  0
VERTEX
  5
299
  8
0
 10
771.87686504304202
 20
-87.380607369483073
 30
0.0
  0
VERTEX
  5
29A
  8
0
 10
961.01470971549281
 20
-146.61170656953499
 30
0.0
  0
VERTEX
  5
29B
  8
0
 10
1254.1181388606731
 20
-76.943144108250863
 30
0.0
  0
VERTEX
  5
29C
  8
0
 10
1329.075993896432
 20
110.3316535304331
 30
0.0
  0
VERTEX
  5
29D
  8
0
 10
1254.9897414616521
 20
257.53835553354878
 30
0.0
  0
VERTEX
  5
29E
  8
0
 10
1071.073225206954
 20
303.48808063415709
 30
0.0
 42
0.2139134027364363
  0
VERTEX
  5
29F
  8
0
 10
1063.018420673247
 20
302.05024100336431
 30
0.0
  0
VERTEX
  5
2A0
  8
0
 10
973.65669882809937
 20
241.16075895663579
 30
0.0
 42
0.1653398697213912
  0
VERTEX
  5
2A1
  8
0
 10
969.78662347353873
 20
236.0163138627772
 30
0.0
  0
VERTEX
  5
2A2
  8
0
 10
934.23984886261746
 20
127.7525651008886
 30
0.0
  0
VERTEX
  5
2A3
  8
0
 10
1020.528542727354
 20
-3.7753159308286959
 30
0.0
  0
VERTEX
  5
2A4
  8
0
 10
1170.444254052936
 20
-58.651186889523963
 30
0.0
  0
VERTEX
  5
2A5
  8
0
 10
1241.915697430717
 20
96.394924553062765
 30
0.0
  0
VERTEX
  5
2A6
  8
0
 10
1241.915697430717
 20
338.54559315044207
 30
0.0
  0
VERTEX
  5
2A7
  8
0
 10
1123.3776935350679
 20
338.54559315044207
 30
0.0
  0
VERTEX
  5
2A8
  8
0
 10
1123.3776935350679
 20
367.2900974509393
 30
0.0
  0
VERTEX
  5
2A9
  8
0
 10
1356.9672896683869
 20
367.2900974509393
 30
0.0
  0
VERTEX
  5
2AA
  8
0
 10
1346.508053440388
 20
335.06141125484208
 30
0.0
  0
VERTEX
  5
2AB
  8
0
 10
1274.1650074616291
 20
335.06141125484208
 30
0.0
  0
VERTEX
  5
2AC
  8
0
 10
1274.1650074616291
 20
-135.303196962546
 30
0.0
  0
VERTEX
  5
2AD
  8
0
 10
592.63144691431421
 20
-254.8048684046108
 30
0.0
  0
VERTEX
  5
2AE
  8
0
 10
210.86934591143401
 20
-254.8048684046108
 30
0.0
  0
SEQEND
  5
2AF
  8
0
  0
POLYLINE
  5
224
  8
0
 66
     1
 10
0.0
 20
0.0
 30
0.0
  0
VERTEX
  5
2B3
  8
0
 10
210.86934591143401
 20
-254.8048684046108
 30
0.0
 42
0.2106435353356565
  0
VERTEX
  5
2B4
  8
0
 10
-31.73703733995626
 20
-361.7573576354348
 30
0.0
 42
-0.4408477955009086
  0
VERTEX
  5
2B5
  8
0
 10
-226.94976585994161
 20
-361.7573576354348
 30
0.0
 42
-1.479096130462856
  0
VERTEX
  5
2B6
  8
0
 10
-126.1948076184771
 20
-323.99841260563772
 30
0.0
 42
1.8687399378015159
  0
VERTEX
  5
2B7
  8
0
 10
2.8974806529945449
 20
-242.18736308786771
 30
0.0
 42
-1.1439760660365319
  0
VERTEX
  5
2B8
  8
0
 10
53.274956261895113
 20
-160.3763116168877
 30
0.0
 42
0.1792627823064922
  0
VERTEX
  5
2B9
  8
0
 10
730.22232338664696
 20
-393.22314711347548
 30
0.0
 42
0.3622231985424697
  0
VERTEX
  5
2BA
  8
0
 10
830.97728162811188
 20
-305.11894009073922
 30
0.0
 42
-0.8539431245381024
  0
VERTEX
  5
2BB
  8
0
 10
938.02942080885759
 20
-305.11894009073922
 30
0.0
 42
0.2770095419842447
  0
VERTEX
  5
2BC
  8
0
 10
1035.635786824766
 20
-421.54235686242828
 30
0.0
  0
VERTEX
  5
2BD
  8
0
 10
1243.442884246977
 20
-301.97236036165123
 30
0.0
 42
-0.6198911763240603
  0
VERTEX
  5
2BE
  8
0
 10
1385.129544932505
 20
-396.36972488935379
 30
0.0
  0
VERTEX
  5
2BF
  8
0
 10
1174.1738517729059
 20
-512.79314361425236
 30
0.0
  0
SEQEND
  5
2C0
  8
0
  0
ENDSEC
  0
EOF
